<?xml version="1.0" encoding="iso-8859-1"?>
<!-- Generator: Adobe Illustrator 19.0.0, SVG Export Plug-In . SVG Version: 6.00 Build 0)  -->
<svg version="1.1" id="Layer_1" xmlns="http://www.w3.org/2000/svg" xmlns:xlink="http://www.w3.org/1999/xlink" x="0px" y="0px"
	 viewBox="0 0 512 512" style="enable-background:new 0 0 512 512;" xml:space="preserve">
<g>
	<g>
		<path d="M289.369,118.617H53.485c-5.77,0-10.449,4.678-10.449,10.449v176.399c0,5.771,4.679,10.449,10.449,10.449h235.885
			c5.77,0,10.449-4.678,10.449-10.449V129.066C299.819,123.295,295.139,118.617,289.369,118.617z M278.92,295.015H63.934v-155.5
			H278.92V295.015z"/>
	</g>
</g>
<g>
	<g>
		<path d="M171.572,245.559h-5.149c-5.77,0-10.449,4.678-10.449,10.449c0,5.771,4.679,10.449,10.449,10.449h5.149
			c5.771,0,10.449-4.678,10.449-10.449C182.022,250.237,177.343,245.559,171.572,245.559z"/>
	</g>
</g>
<g>
	<g>
		<path d="M129.214,245.559H81.307c-5.77,0-10.449,4.678-10.449,10.449c0,5.771,4.679,10.449,10.449,10.449h47.908
			c5.77,0,10.449-4.678,10.449-10.449C139.664,250.237,134.985,245.559,129.214,245.559z"/>
	</g>
</g>
<g>
	<g>
		<path d="M501.997,228.862L307.698,34.56c-6.415-6.415-14.926-9.972-23.966-10.017c-0.059-0.001-0.115-0.001-0.174-0.001
			c-9.014,0-17.469,3.494-23.824,9.851L227.746,66.38H34.035C15.268,66.381,0,81.542,0,100.177v283.97
			c0,18.636,15.268,33.797,34.035,33.797h159.858l59.51,59.511c6.668,6.667,15.412,10.002,24.139,10.002
			c8.644,0,17.269-3.276,23.827-9.833l200.8-200.799C515.344,263.647,515.266,242.131,501.997,228.862z M274.511,49.171
			c2.422-2.421,5.649-3.702,9.117-3.729c3.497,0.018,6.797,1.401,9.293,3.897l17.071,17.071c-0.391-0.014-0.782-0.029-1.176-0.029
			h-51.514L274.511,49.171z M34.035,397.046c-7.243,0-13.137-5.787-13.137-12.899v-283.97c0-7.112,5.893-12.899,13.137-12.899
			h274.78c7.245,0,13.138,5.787,13.138,12.899v270.77c0,0.003,0,0.007,0,0.01v13.19c0,7.112-5.894,12.899-13.138,12.899H34.035z
			 M487.39,262.048L286.591,462.846c-5.029,5.029-13.287,4.954-18.409-0.169l-44.734-44.733h85.368
			c18.768,0,34.037-15.161,34.037-33.797v-8.866l108.455-108.455c4.08-4.08,4.08-10.697,0-14.778L342.852,143.592v-43.415
			c0-0.311-0.016-0.621-0.024-0.93l144.392,144.393C492.342,248.762,492.417,257.02,487.39,262.048z M342.852,345.724V173.147
			l86.288,86.288L342.852,345.724z"/>
	</g>
</g>
<g>
</g>
<g>
</g>
<g>
</g>
<g>
</g>
<g>
</g>
<g>
</g>
<g>
</g>
<g>
</g>
<g>
</g>
<g>
</g>
<g>
</g>
<g>
</g>
<g>
</g>
<g>
</g>
<g>
</g>
</svg>
