<svg xmlns="http://www.w3.org/2000/svg" viewBox="0 0 204 204"><path d="M92.388 204H31.954c-4.64 0-8.414-3.775-8.414-8.415v-27.278c0-4.64 3.774-8.414 8.414-8.414h4.754v-15.179a2 2 0 012-2h23.538c.724-1.916 2.302-5.926 5.129-12.383-1.379-1.411-3.633-4.296-5.85-9.652-3.322-8.029-3.36-16.453-3.36-16.807 0-.696.362-1.343.957-1.706a2.005 2.005 0 011.955-.075c2.6 1.33 5.542 2.747 7.833 3.761-1.596-2.497-3.929-5.871-6.082-8.824a2 2 0 01-.373-1.388c.022-.217.609-5.456 4.917-17.573 4.479-12.599 19.013-20.789 19.63-21.132a2.003 2.003 0 012.949 1.457c5.491-12.554 17.031-32.486 36.315-37.212C152.918 14.647 177.085.422 177.326.279a1.999 1.999 0 013.006 1.48c.046.381 1.077 9.463-3.601 21.297-1.979 5.006-5.086 8.089-8.142 9.988l3.811.389a2.003 2.003 0 011.716 2.555c-.058.195-1.448 4.854-5.01 10.881-3.398 5.75-28.904 37.94-41.756 46.881-7.099 4.938-16.137 8.455-22.75 10.601l3.192.486a2 2 0 011.377 3.065c-.388.599-9.636 14.782-20.679 24.479-9.082 7.973-16.631 6.552-19.911 5.296a233.64 233.64 0 00-2.045 5.038h19.099a2 2 0 012 2v15.179h4.754c4.64 0 8.414 3.774 8.414 8.414v27.278c.001 4.639-3.774 8.414-8.413 8.414zm-60.434-40.107a4.419 4.419 0 00-4.414 4.414v27.278A4.42 4.42 0 0031.954 200h60.434a4.42 4.42 0 004.414-4.415v-27.278a4.419 4.419 0 00-4.414-4.414H31.954zm8.754-4h42.925v-13.179H40.708v13.179zm29.702-25.8c2.533.845 8.251 1.595 15.441-4.719 7.881-6.92 15.008-16.516 18.198-21.062l-9.157-1.394a2 2 0 01-.145-3.927c.183-.042 18.491-4.297 30.32-12.526 12.179-8.473 37.383-40.196 40.597-45.633a55.878 55.878 0 003.789-7.68l-10.559-1.077a2 2 0 01.156-3.989c.398-.013 9.983-.432 13.963-10.5 2.735-6.918 3.352-12.815 3.435-16.22-7.325 4.013-27.449 14.362-49.227 19.7-25.82 6.328-37.214 44.488-37.326 44.873a1.993 1.993 0 01-2.203 1.421 2 2 0 01-1.718-1.979V62.33c-4.292 2.956-12.015 9.155-14.833 17.08-3.234 9.099-4.291 14.161-4.597 15.93 8.742 12.051 8.421 13.371 8.208 14.249a2.152 2.152 0 01-1.125 1.422c-.8.399-1.778.887-11.249-3.785.305 2.999 1.045 7.579 2.844 11.926 1.461 3.531 2.907 5.798 3.978 7.175 6.164-12.84 22.603-41.83 37.313-63.161 16.1-23.344 46.254-41.905 47.53-42.684a2 2 0 012.084 3.414c-.305.187-30.711 18.907-46.321 41.541-16.179 23.46-33.854 55.41-38.154 65.109l-1.242 3.547z"/></svg>