<svg xmlns="http://www.w3.org/2000/svg" viewBox="0 0 512 512"><path d="M289.369 118.617H53.485c-5.77 0-10.449 4.678-10.449 10.449v176.399c0 5.771 4.679 10.449 10.449 10.449H289.37c5.77 0 10.449-4.678 10.449-10.449V129.066c0-5.771-4.68-10.449-10.45-10.449zM278.92 295.015H63.934v-155.5H278.92v155.5z"/><path d="M171.572 245.559h-5.149c-5.77 0-10.449 4.678-10.449 10.449s4.679 10.449 10.449 10.449h5.149c5.771 0 10.449-4.678 10.449-10.449.001-5.771-4.678-10.449-10.449-10.449zm-42.358 0H81.307c-5.77 0-10.449 4.678-10.449 10.449s4.679 10.449 10.449 10.449h47.908c5.77 0 10.449-4.678 10.449-10.449s-4.679-10.449-10.45-10.449z"/><path d="M501.997 228.862L307.698 34.56c-6.415-6.415-14.926-9.972-23.966-10.017l-.174-.001c-9.014 0-17.469 3.494-23.824 9.851L227.746 66.38H34.035C15.268 66.381 0 81.542 0 100.177v283.97c0 18.636 15.268 33.797 34.035 33.797h159.858l59.51 59.511a34.05 34.05 0 0024.139 10.002c8.644 0 17.269-3.276 23.827-9.833l200.8-200.799c13.175-13.178 13.097-34.694-.172-47.963zM274.511 49.171c2.422-2.421 5.649-3.702 9.117-3.729 3.497.018 6.797 1.401 9.293 3.897l17.071 17.071c-.391-.014-.782-.029-1.176-.029h-51.514l17.209-17.21zM34.035 397.046c-7.243 0-13.137-5.787-13.137-12.899v-283.97c0-7.112 5.893-12.899 13.137-12.899h274.78c7.245 0 13.138 5.787 13.138 12.899v283.97c0 7.112-5.894 12.899-13.138 12.899H34.035zM487.39 262.048L286.591 462.846c-5.029 5.029-13.287 4.954-18.409-.169l-44.734-44.733h85.368c18.768 0 34.037-15.161 34.037-33.797v-8.866l108.455-108.455c4.08-4.08 4.08-10.697 0-14.778L342.852 143.592v-43.415c0-.311-.016-.621-.024-.93L487.22 243.64c5.122 5.122 5.197 13.38.17 18.408zm-144.538 83.676V173.147l86.288 86.288-86.288 86.289z"/></svg>