<svg xmlns="http://www.w3.org/2000/svg" viewBox="0 0 463 463"><path d="M462.429 60.63A7.499 7.499 0 00455.5 56H407V7.5a7.499 7.499 0 00-12.804-5.303l-57.941 57.941C325.773 70.621 320 84.558 320 99.383v33.011l-12.225 12.225C275.063 114.456 231.399 96 183.5 96 82.318 96 0 178.318 0 279.5S82.318 463 183.5 463 367 380.683 367 279.5c0-47.899-18.455-91.562-48.618-124.275L330.607 143h33.011c14.824 0 28.761-5.773 39.244-16.256l57.941-57.941a7.499 7.499 0 001.626-8.173zM335 99.383c0-10.818 4.213-20.989 11.862-28.638L392 25.607v34.787l-57 57V99.383zM352 279.5c0 92.911-75.589 168.5-168.5 168.5S15 372.412 15 279.5 90.589 111 183.5 111c43.763 0 83.679 16.775 113.667 44.226l-23.354 23.354C249.825 157.091 218.165 144 183.5 144 108.785 144 48 204.786 48 279.5S108.785 415 183.5 415 319 354.215 319 279.5c0-34.665-13.09-66.325-34.58-90.313l23.354-23.354C335.226 195.821 352 235.737 352 279.5zm-144 0c0 13.509-10.99 24.5-24.5 24.5S159 293.01 159 279.5s10.99-24.5 24.5-24.5c4.027 0 7.827.983 11.182 2.711l-16.485 16.485a7.5 7.5 0 005.304 12.803 7.478 7.478 0 005.304-2.197l16.485-16.485A24.365 24.365 0 01208 279.5zm-2.39-32.716A39.274 39.274 0 00183.501 240c-21.78 0-39.5 17.72-39.5 39.5s17.72 39.5 39.5 39.5 39.5-17.72 39.5-39.5a39.266 39.266 0 00-6.784-22.109l23.548-23.548C249.906 246.317 256 262.208 256 279.5c0 39.977-32.523 72.5-72.5 72.5S111 319.477 111 279.5s32.523-72.5 72.5-72.5c17.292 0 33.183 6.094 45.657 16.236l-23.547 23.548zm34.2-34.2C224.58 199.748 204.93 192 183.5 192c-48.248 0-87.5 39.252-87.5 87.5s39.252 87.5 87.5 87.5 87.5-39.252 87.5-87.5c0-21.429-7.748-41.08-20.584-56.31l23.384-23.384c18.782 21.257 30.2 49.165 30.2 79.693 0 66.444-54.056 120.5-120.5 120.5S63 345.944 63 279.5 117.056 159 183.5 159c30.529 0 58.437 11.418 79.693 30.2l-23.383 23.384zm152.445-96.446c-7.649 7.65-17.819 11.862-28.637 11.862h-18.011l57-57h34.787l-45.139 45.138z"/></svg>